<?xml version="1.0" encoding="UTF-8"?>
<svg id="_圖層_1" data-name="圖層 1" xmlns="http://www.w3.org/2000/svg" viewBox="0 0 615.68 75.36">
  <defs>
    <style>
      .cls-1 {
        fill: none;
      }

      .cls-2 {
        fill: #00e7ed;
      }
    </style>
  </defs>
  <rect class="cls-1" y="1.68" width="615.68" height="73.68"/>
  <g>
    <path class="cls-2" d="M43.12,20l-.8,3.2h40.72l-4.56,19.52-7.2,13.6h7.6l-4.16,18H0l4.16-18H46.08l.64-2.88H7.12l4.24-18.32,7.44-15.12h-6L17.04,1.52H90.32l-4.32,18.48H43.12Zm14.24,16.88h-23.44l-1.2,2.88h23.2l1.44-2.88Z"/>
    <path class="cls-2" d="M129.2,63.12l-2.72,11.92h-38.88l2.72-11.92h10.08l.48-2h-9.36l2-8.72h9.36l.48-1.92h-10l5.6-24.24h10.24l.48-2.16h-10.64l2.56-11.04h10.64l.48-1.84h-10.16l2.32-9.92h39.36l-1.52,6.72-4.08,3.2h-7.68l-.48,1.84h11.04l-2.56,11.04h-10.96l-.56,2.16h11.04l-5.6,24.24h-10.64l-.48,1.92h9.76l-2,8.72h-9.76l-.48,2h9.92Zm-22.56-20.56h3.36l.4-1.92h-3.28l-.48,1.92Zm2-8.56l-.48,1.92h3.36l.4-1.92h-3.28Zm14.08,8.56l.48-1.92h-3.44l-.4,1.92h3.36Zm-1.44-8.56l-.4,1.92h3.36l.48-1.92h-3.44ZM178,7.2l-15.6,67.6h-18l2.8-11.92,2.96-2.72,7.92-34.4h-1.68l-14,49.2h-13.84l4.64-20,9.52-29.2h-2.08l4.24-18.56h2.96l1.52-6.56h17.04l-1.52,6.56h13.12Z"/>
    <path class="cls-2" d="M214.24,48l-2,8.4h7.36l-4.08,17.68h-38l4.08-17.68h5.92l2-8.4h-5.04l4-17.36h35.2l-4,17.36h-5.44Zm37.44-17.92l-3.28,14.08,5.84,16.72-3.28,14.48h-21.52l-7.36-27.04,4.72-20.32h-40.32l5.04-22.08h37.84l1.36-5.92h24l-1.84,8h2.48l1.36-5.6h6.64l-.16,5.6h2l-5.12,22.08h-8.4Z"/>
    <path class="cls-2" d="M275.36,57.68l-3.92,17.12h-8.16l3.2-13.76,2.88-3.36h6Zm15.6-1.92h-22.88l4.16-17.92,5.76-6.4,.08-.4h-4.08l4.24-18.16,10.4-11.2h14.8l-2.4,10.32-7.44,7.92-.16,.56h5.68l-3.2,13.6-6,6-.08,.48h4.64l-3.52,15.2Zm-7.52,1.92l-3.92,17.12h-6.48l4-17.12h6.4Zm7.12,0l-3.92,17.12h-5.52l4-17.12h5.44ZM354.88,1.52l-16.96,73.52h-22l1.04-4.4h-10.64l3.68-15.92h-1.84l-4.72,20.32h-15.2L305.28,1.52h49.6Zm-44,41.28h3.44l.56-2.48h-3.44l-.56,2.48Zm5.84-25.2l-2.64,11.52h3.04l-.96-2,1.76-7.68h6.64l-2.24,9.68h1.6l2.24-9.68h6.64l-1.76,7.68-1.84,2h2.96l2.64-11.52h-18.08Zm7.28,46.96l2.24-9.84h-5.84l-.72,2.88h4.16l-1.92,8.16,2.08-1.2Zm1.68-24.24l-.56,2.48h3.92l.56-2.48h-3.92Z"/>
    <path class="cls-2" d="M414.64,18.24l-1.68,2.64h23.92l-9.84,42.32h-6.4l6.48,6.48-1.2,5.28h-27.92l-2.88-8.64h-6.88l-6.32,8.64h-30.08l1.2-5.28,8.48-6.48h-5.44l9.76-42.32h20.24l1.6-2.64h-22.88l3.84-16.64h74.4l-3.84,16.64h-24.56Zm-34.96,33.92h28.24l.56-2.4h-28.24l-.56,2.4Zm30.8-11.04h-28.24l-.56,2.56h28.16l.64-2.56Zm1.92-8.56h-28.16l-.56,2.48h28.16l.56-2.48Z"/>
    <path class="cls-2" d="M475.28,50.24l-5.6,24.56h-29.84l5.68-24.56h29.76Zm-.08-2h-29.04l2.56-11.12h29.04l-2.56,11.12Zm3.04-12.96h-29.12l2.64-11.6h29.12l-2.64,11.6Zm3.44-13.44h-29.76l4.16-18h5.92l.8-3.2h17.76l-.72,3.2h6l-4.16,18Zm-21.68,39.36h-3.6l-.72,2.96h3.68l.64-2.96Zm21.04-26.72h41.04l-5.28,22.96-4.88,3.44,4,3.92-2.4,10.32h-14.56l-4.56-3.92-5.6,3.92h-17.44l2.4-10.32,4.88-3.12-2.88-2.56,2.24-9.52h14.32l4.32,3.68,3.12-2.56,.64-2.88h-22.4l3.04-13.36Zm43.6-17.76h3.44l-3.68,16h-17.12l-3.28-3.52,2.48-10.8h-2.24l-2.48,10.8-4.08,3.52h-16.88l3.68-16h2.64l3.52-15.52h37.6l-3.6,15.52Z"/>
    <path class="cls-2" d="M533.52,50.24h34.08l-5.68,24.56h-34.08l5.68-24.56Zm3.36-13.12h33.28l-2.56,11.12h-33.28l2.56-11.12Zm33.68-1.84h-33.28l2.64-11.6h33.28l-2.64,11.6Zm3.68-13.44h-34.32l4.16-18h6.48l.72-3.2h20.88l-.72,3.2h6.96l-4.16,18Zm-30.08,42.32h6.08l.72-2.96h-6.08l-.72,2.96Zm65.84-19.84h-7.44l-7.12,30.8h-25.12l7.12-30.8h-6.48l5.68-24.48h6.48l4.4-19.12h25.12l-4.4,19.12h7.44l-5.68,24.48Z"/>
  </g>
</svg>