<?xml version="1.0" encoding="UTF-8"?>
<svg id="_圖層_1" data-name="圖層 1" xmlns="http://www.w3.org/2000/svg" xmlns:xlink="http://www.w3.org/1999/xlink" viewBox="0 0 1920 1598.15">
  <defs>
    <style>
      .cls-1 {
        fill: url(#_未命名漸層_11);
      }
    </style>
    <linearGradient id="_未命名漸層_11" data-name="未命名漸層 11" x1="1021.02" y1="2.61" x2="1021.02" y2="1582.94" gradientUnits="userSpaceOnUse">
      <stop offset="0" stop-color="#00e7ed" stop-opacity="0"/>
      <stop offset=".5" stop-color="#00e7ed"/>
      <stop offset="1" stop-color="#00e7ed" stop-opacity="0"/>
    </linearGradient>
  </defs>
  <path class="cls-1" d="M960,1598.15c-16.57,0-30-13.43-30-30v-145.5c0-101.73,82.77-184.5,184.5-184.5h222.02c68.65,0,124.5-55.85,124.5-124.5s-55.85-124.5-124.5-124.5H705.52c-101.73,0-184.5-82.77-184.5-184.5v-.15c0-101.73,82.77-184.5,184.5-184.5h631c68.65,0,124.5-55.85,124.5-124.5v-1c0-68.65-55.85-124.5-124.5-124.5h-222.02c-101.73,0-184.5-82.77-184.5-184.5V30c0-16.57,13.43-30,30-30s30,13.43,30,30V185.5c0,68.65,55.85,124.5,124.5,124.5h222.02c101.73,0,184.5,82.77,184.5,184.5v1c0,101.73-82.77,184.5-184.5,184.5H705.52c-68.65,0-124.5,55.85-124.5,124.5v.15c0,68.65,55.85,124.5,124.5,124.5h631c101.73,0,184.5,82.77,184.5,184.5s-82.77,184.5-184.5,184.5h-222.02c-68.65,0-124.5,55.85-124.5,124.5v145.5c0,16.57-13.43,30-30,30Z"/>
</svg>